# xmcd
#
# Track frame offsets:
#	150
#	19872
#	41435
#	56797
#	75660
#	92305
#	112945
#	129405
#
# Disc length: 2036 seconds
#
# Revision: 6
# Processed by: cddbd v1.5.2PL0 Copyright (c) Steve Scherf et al.
# Submitted via: audiograbber 1.83.01
#
DISCID=5607f208
DTITLE=King, B. B. - Six silver strings
DYEAR=1985
DGENRE=Blues
TTITLE0=Six silver strings
TTITLE1=Big boss man
TTITLE2=In the midnight hour
TTITLE3=Into the night
TTITLE4=My Lucille
TTITLE5=Memory lane
TTITLE6=My guitar sings the blues
TTITLE7=Double trouble
EXTD=
EXTT0=
EXTT1=
EXTT2=
EXTT3=
EXTT4=
EXTT5=
EXTT6=
EXTT7=
PLAYORDER=
